<svg id="Capa_1" enable-background="new 0 0 512 512" height="512" viewBox="0 0 512 512" width="512" xmlns="http://www.w3.org/2000/svg"><g><path d="m421 175.706v-144.706h-90v49.411l-75-80.411-256 271h61v241h195 195v-241h61z" fill="#fdc"/><path d="m451 271h61l-91-95.294v-144.706h-90v49.411l-75-80.411v512h195z" fill="#ffcabf"/><path d="m307.929 241c-25.239 0-41.704 13.535-51.929 27.29-10.225-13.755-26.689-27.29-51.929-27.29-37.529 0-66.914 31.348-66.914 71.367 0 42.729 34.482 71.836 82.207 112.119 8.423 7.119 17.388 14.678 26.807 22.852l9.829 8.511 9.829-8.511c9.419-8.174 18.384-15.732 26.807-22.852 47.725-40.283 82.207-69.39 82.207-112.119 0-40.019-29.385-71.367-66.914-71.367z" fill="#f25862"/><path d="m292.636 424.486c47.725-40.283 82.207-69.39 82.207-112.119 0-40.02-29.385-71.367-66.914-71.367-25.239 0-41.704 13.535-51.929 27.29v187.559l9.829-8.511c9.419-8.174 18.384-15.733 26.807-22.852z" fill="#e63a49"/></g></svg>